# xmcd CD database file
#
# Track frame offsets:
#	150
#	12202
#	24560
#	34547
#	51790
#	68300
#	82750
#	102490
#	113395
#	129782
#	146980
#	166097
#	186122
#	201357
#	219330
#	234927
#	250005
#	266540
#
# Disc length: 3751 seconds
#
# Revision: 2
# Processed by: cddbd v1.5.2PL0 Copyright (c) Steve Scherf et al.
# Submitted via: CDex 1.70beta3
#
DISCID=dc0ea512
DTITLE=小野リサ - Ono Lisa Best 1997-2001
DYEAR=2002
DGENRE=Jazz
TTITLE0=Red Blouse
TTITLE1=Moonlight Serenade
TTITLE2=Samba De Verao
TTITLE3=I Wish You Love
TTITLE4=Chega De Saudade
TTITLE5=Ela E Carioca
TTITLE6=Moon River
TTITLE7=Flor De Yamanja
TTITLE8=Pretty World
TTITLE9=Smile
TTITLE10=Dream
TTITLE11=Palpite Infeliz
TTITLE12=In The Mood - Edmund
TTITLE13=My Chirie Amuor
TTITLE14=Non-stop To Brazil
TTITLE15=Blue Hawaii
TTITLE16=Pikake
TTITLE17=Angel's Eyes
EXTD=YEAR: 2002
EXTT0=
EXTT1=
EXTT2=
EXTT3=
EXTT4=
EXTT5=
EXTT6=
EXTT7=
EXTT8=
EXTT9=
EXTT10=
EXTT11=
EXTT12=
EXTT13=
EXTT14=
EXTT15=
EXTT16=
EXTT17=
PLAYORDER=
